# This file uses centimeters as units for non-parametric coordinates.

mtllib DONA3.mtl
g default
v 0.209798 -0.054931 -0.040366
v 0.178465 -0.104484 -0.076781
v 0.129662 -0.143811 -0.105679
v 0.068167 -0.169059 -0.124234
v 0.000000 -0.177760 -0.130627
v -0.068167 -0.169059 -0.124234
v -0.129662 -0.143810 -0.105679
v -0.178464 -0.104484 -0.076781
v -0.209798 -0.054931 -0.040366
v -0.220594 0.000000 0.000000
v -0.209798 0.054931 0.040366
v -0.178464 0.104484 0.076781
v -0.129662 0.143810 0.105679
v -0.068167 0.169059 0.124233
v -0.000000 0.177759 0.130627
v 0.068167 0.169059 0.124233
v 0.129662 0.143810 0.105679
v 0.178464 0.104484 0.076781
v 0.209798 0.054931 0.040366
v 0.220594 0.000000 0.000000
v 0.249865 -0.022592 -0.106358
v 0.212548 -0.081610 -0.149727
v 0.154425 -0.128447 -0.184145
v 0.081186 -0.158518 -0.206243
v 0.000000 -0.168879 -0.213857
v -0.081186 -0.158518 -0.206243
v -0.154425 -0.128447 -0.184145
v -0.212548 -0.081610 -0.149727
v -0.249865 -0.022592 -0.106358
v -0.262724 0.042829 -0.058283
v -0.249865 0.108251 -0.010208
v -0.212548 0.167268 0.033161
v -0.154425 0.214105 0.067579
v -0.081186 0.244176 0.089677
v -0.000000 0.254538 0.097291
v 0.081186 0.244176 0.089677
v 0.154425 0.214105 0.067579
v 0.212548 0.167268 0.033161
v 0.249865 0.108251 -0.010208
v 0.262724 0.042829 -0.058283
v 0.419595 -0.036996 -0.179889
v 0.356929 -0.136104 -0.252718
v 0.259324 -0.214756 -0.310515
v 0.136335 -0.265253 -0.347624
v 0.000000 -0.282654 -0.360410
v -0.136335 -0.265253 -0.347624
v -0.259324 -0.214756 -0.310515
v -0.356929 -0.136103 -0.252718
v -0.419595 -0.036996 -0.179888
v -0.441188 0.072865 -0.099157
v -0.419595 0.182727 -0.018425
v -0.356929 0.281834 0.054404
v -0.259324 0.360486 0.112202
v -0.136335 0.410984 0.149310
v -0.000000 0.428384 0.162097
v 0.136335 0.410984 0.149310
v 0.259324 0.360486 0.112202
v 0.356929 0.281834 0.054404
v 0.419595 0.182727 -0.018425
v 0.441188 0.072865 -0.099157
v 0.542911 -0.083200 -0.184678
v 0.461828 -0.211434 -0.278911
v 0.335538 -0.313201 -0.353695
v 0.176403 -0.378540 -0.401709
v 0.000000 -0.401054 -0.418254
v -0.176403 -0.378540 -0.401709
v -0.335538 -0.313201 -0.353695
v -0.461828 -0.211434 -0.278911
v -0.542911 -0.083200 -0.184678
v -0.570850 0.058949 -0.080219
v -0.542911 0.201098 0.024239
v -0.461828 0.329333 0.118472
v -0.335537 0.431100 0.193256
v -0.176402 0.496439 0.241270
v -0.000000 0.518953 0.257815
v 0.176402 0.496439 0.241270
v 0.335537 0.431100 0.193256
v 0.461828 0.329333 0.118472
v 0.542911 0.201098 0.024239
v 0.570850 0.058949 -0.080219
v 0.619125 -0.139587 -0.149763
v 0.526659 -0.285823 -0.257225
v 0.382640 -0.401876 -0.342507
v 0.201166 -0.476387 -0.397261
v 0.000000 -0.502062 -0.416128
v -0.201166 -0.476387 -0.397261
v -0.382640 -0.401876 -0.342507
v -0.526659 -0.285823 -0.257225
v -0.619125 -0.139587 -0.149763
v -0.650986 0.022517 -0.030641
v -0.619125 0.184620 0.088481
v -0.526659 0.330856 0.195943
v -0.382640 0.446909 0.281225
v -0.201166 0.521420 0.335979
v -0.000000 0.547095 0.354846
v 0.201166 0.521420 0.335979
v 0.382640 0.446909 0.281225
v 0.526659 0.330856 0.195943
v 0.619124 0.184620 0.088481
v 0.650986 0.022517 -0.030641
v 0.619125 -0.184620 -0.088481
v 0.526659 -0.330856 -0.195943
v 0.382640 -0.446910 -0.281225
v 0.201166 -0.521420 -0.335979
v 0.000000 -0.547095 -0.354846
v -0.201166 -0.521420 -0.335979
v -0.382640 -0.446910 -0.281225
v -0.526659 -0.330856 -0.195943
v -0.619125 -0.184620 -0.088481
v -0.650986 -0.022517 0.030641
v -0.619125 0.139587 0.149763
v -0.526659 0.285823 0.257225
v -0.382640 0.401876 0.342507
v -0.201166 0.476387 0.397261
v -0.000000 0.502062 0.416128
v 0.201166 0.476387 0.397261
v 0.382640 0.401876 0.342507
v 0.526659 0.285823 0.257225
v 0.619124 0.139587 0.149763
v 0.650986 -0.022517 0.030641
v 0.542911 -0.201098 -0.024239
v 0.461828 -0.329333 -0.118472
v 0.335538 -0.431100 -0.193256
v 0.176403 -0.496439 -0.241270
v 0.000000 -0.518953 -0.257815
v -0.176403 -0.496439 -0.241270
v -0.335538 -0.431100 -0.193256
v -0.461828 -0.329333 -0.118472
v -0.542911 -0.201098 -0.024239
v -0.570851 -0.058949 0.080219
v -0.542911 0.083200 0.184678
v -0.461828 0.211434 0.278911
v -0.335537 0.313201 0.353695
v -0.176403 0.378540 0.401709
v -0.000000 0.401054 0.418254
v 0.176402 0.378540 0.401709
v 0.335537 0.313201 0.353695
v 0.461828 0.211434 0.278911
v 0.542911 0.083199 0.184678
v 0.570850 -0.058949 0.080219
v 0.419595 -0.182727 0.018425
v 0.356929 -0.281834 -0.054404
v 0.259324 -0.360486 -0.112202
v 0.136335 -0.410984 -0.149310
v 0.000000 -0.428385 -0.162097
v -0.136335 -0.410984 -0.149310
v -0.259324 -0.360486 -0.112202
v -0.356929 -0.281834 -0.054404
v -0.419595 -0.182727 0.018425
v -0.441188 -0.072865 0.099157
v -0.419595 0.036996 0.179889
v -0.356929 0.136103 0.252718
v -0.259324 0.214755 0.310515
v -0.136335 0.265253 0.347624
v -0.000000 0.282654 0.360410
v 0.136335 0.265253 0.347624
v 0.259324 0.214755 0.310515
v 0.356929 0.136103 0.252718
v 0.419595 0.036996 0.179888
v 0.441188 -0.072865 0.099157
v 0.249865 -0.108251 0.010208
v 0.212548 -0.167268 -0.033161
v 0.154425 -0.214105 -0.067579
v 0.081186 -0.244176 -0.089677
v 0.000000 -0.254538 -0.097291
v -0.081186 -0.244176 -0.089677
v -0.154425 -0.214105 -0.067579
v -0.212548 -0.167268 -0.033161
v -0.249865 -0.108251 0.010208
v -0.262724 -0.042829 0.058283
v -0.249865 0.022592 0.106358
v -0.212548 0.081610 0.149727
v -0.154425 0.128446 0.184145
v -0.081186 0.158517 0.206243
v -0.000000 0.168879 0.213857
v 0.081186 0.158517 0.206243
v 0.154425 0.128446 0.184145
v 0.212548 0.081610 0.149727
v 0.249865 0.022592 0.106358
v 0.262724 -0.042829 0.058283
vt 0.000000 1.000000
vt 0.050000 1.000000
vt 0.100000 1.000000
vt 0.150000 1.000000
vt 0.200000 1.000000
vt 0.250000 1.000000
vt 0.300000 1.000000
vt 0.350000 1.000000
vt 0.400000 1.000000
vt 0.450000 1.000000
vt 0.500000 1.000000
vt 0.550000 1.000000
vt 0.600000 1.000000
vt 0.650000 1.000000
vt 0.700000 1.000000
vt 0.750000 1.000000
vt 0.800000 1.000000
vt 0.850000 1.000000
vt 0.900000 1.000000
vt 0.950000 1.000000
vt 1.000000 1.000000
vt 0.000000 0.900000
vt 0.050000 0.900000
vt 0.100000 0.900000
vt 0.150000 0.900000
vt 0.200000 0.900000
vt 0.250000 0.900000
vt 0.300000 0.900000
vt 0.350000 0.900000
vt 0.400000 0.900000
vt 0.450000 0.900000
vt 0.500000 0.900000
vt 0.550000 0.900000
vt 0.600000 0.900000
vt 0.650000 0.900000
vt 0.700000 0.900000
vt 0.750000 0.900000
vt 0.800000 0.900000
vt 0.850000 0.900000
vt 0.900000 0.900000
vt 0.950000 0.900000
vt 1.000000 0.900000
vt 0.000000 0.750000
vt 0.050000 0.750000
vt 0.100000 0.750000
vt 0.150000 0.750000
vt 0.200000 0.750000
vt 0.250000 0.750000
vt 0.300000 0.750000
vt 0.350000 0.750000
vt 0.400000 0.750000
vt 0.450000 0.750000
vt 0.500000 0.750000
vt 0.550000 0.750000
vt 0.600000 0.750000
vt 0.650000 0.750000
vt 0.700000 0.750000
vt 0.750000 0.750000
vt 0.800000 0.750000
vt 0.850000 0.750000
vt 0.900000 0.750000
vt 0.950000 0.750000
vt 1.000000 0.750000
vt 0.000000 0.650000
vt 0.050000 0.650000
vt 0.100000 0.650000
vt 0.150000 0.650000
vt 0.200000 0.650000
vt 0.250000 0.650000
vt 0.300000 0.650000
vt 0.350000 0.650000
vt 0.400000 0.650000
vt 0.450000 0.650000
vt 0.500000 0.650000
vt 0.550000 0.650000
vt 0.600000 0.650000
vt 0.650000 0.650000
vt 0.700000 0.650000
vt 0.750000 0.650000
vt 0.800000 0.650000
vt 0.850000 0.650000
vt 0.900000 0.650000
vt 0.950000 0.650000
vt 1.000000 0.650000
vt 0.000000 0.550000
vt 0.050000 0.550000
vt 0.100000 0.550000
vt 0.150000 0.550000
vt 0.200000 0.550000
vt 0.250000 0.550000
vt 0.300000 0.550000
vt 0.350000 0.550000
vt 0.400000 0.550000
vt 0.450000 0.550000
vt 0.500000 0.550000
vt 0.550000 0.550000
vt 0.600000 0.550000
vt 0.650000 0.550000
vt 0.700000 0.550000
vt 0.750000 0.550000
vt 0.800000 0.550000
vt 0.850000 0.550000
vt 0.900000 0.550000
vt 0.950000 0.550000
vt 1.000000 0.550000
vt 0.000000 0.450000
vt 0.050000 0.450000
vt 0.100000 0.450000
vt 0.150000 0.450000
vt 0.200000 0.450000
vt 0.250000 0.450000
vt 0.300000 0.450000
vt 0.350000 0.450000
vt 0.400000 0.450000
vt 0.450000 0.450000
vt 0.500000 0.450000
vt 0.550000 0.450000
vt 0.600000 0.450000
vt 0.650000 0.450000
vt 0.700000 0.450000
vt 0.750000 0.450000
vt 0.800000 0.450000
vt 0.850000 0.450000
vt 0.900000 0.450000
vt 0.950000 0.450000
vt 1.000000 0.450000
vt 0.000000 0.350000
vt 0.050000 0.350000
vt 0.100000 0.350000
vt 0.150000 0.350000
vt 0.200000 0.350000
vt 0.250000 0.350000
vt 0.300000 0.350000
vt 0.350000 0.350000
vt 0.400000 0.350000
vt 0.450000 0.350000
vt 0.500000 0.350000
vt 0.550000 0.350000
vt 0.600000 0.350000
vt 0.650000 0.350000
vt 0.700000 0.350000
vt 0.750000 0.350000
vt 0.800000 0.350000
vt 0.850000 0.350000
vt 0.900000 0.350000
vt 0.950000 0.350000
vt 1.000000 0.350000
vt 0.000000 0.250000
vt 0.050000 0.250000
vt 0.100000 0.250000
vt 0.150000 0.250000
vt 0.200000 0.250000
vt 0.250000 0.250000
vt 0.300000 0.250000
vt 0.350000 0.250000
vt 0.400000 0.250000
vt 0.450000 0.250000
vt 0.500000 0.250000
vt 0.550000 0.250000
vt 0.600000 0.250000
vt 0.650000 0.250000
vt 0.700000 0.250000
vt 0.750000 0.250000
vt 0.800000 0.250000
vt 0.850000 0.250000
vt 0.900000 0.250000
vt 0.950000 0.250000
vt 1.000000 0.250000
vt 0.000000 0.100000
vt 0.050000 0.100000
vt 0.100000 0.100000
vt 0.150000 0.100000
vt 0.200000 0.100000
vt 0.250000 0.100000
vt 0.300000 0.100000
vt 0.350000 0.100000
vt 0.400000 0.100000
vt 0.450000 0.100000
vt 0.500000 0.100000
vt 0.550000 0.100000
vt 0.600000 0.100000
vt 0.650000 0.100000
vt 0.700000 0.100000
vt 0.750000 0.100000
vt 0.800000 0.100000
vt 0.850000 0.100000
vt 0.900000 0.100000
vt 0.950000 0.100000
vt 1.000000 0.100000
vt 0.000000 -0.000000
vt 0.050000 -0.000000
vt 0.100000 -0.000000
vt 0.150000 -0.000000
vt 0.200000 -0.000000
vt 0.250000 -0.000000
vt 0.300000 -0.000000
vt 0.350000 -0.000000
vt 0.400000 -0.000000
vt 0.450000 -0.000000
vt 0.500000 -0.000000
vt 0.550000 -0.000000
vt 0.600000 -0.000000
vt 0.650000 -0.000000
vt 0.700000 -0.000000
vt 0.750000 -0.000000
vt 0.800000 -0.000000
vt 0.850000 -0.000000
vt 0.900000 -0.000000
vt 0.950000 -0.000000
vt 1.000000 -0.000000
vn -0.809017 0.473650 0.348062
vn -0.951057 0.249012 0.182986
vn -0.400881 0.641945 -0.653607
vn -0.341009 0.736632 -0.584025
vn -0.587785 0.651924 0.479066
vn -0.247758 0.811776 -0.528806
vn -0.309017 0.766382 0.563176
vn -0.130254 0.860022 -0.493352
vn 0.000000 0.805822 0.592158
vn -0.000000 0.876646 -0.481136
vn 0.309017 0.766382 0.563176
vn 0.130254 0.860022 -0.493352
vn 0.587785 0.651924 0.479066
vn 0.247758 0.811776 -0.528806
vn 0.809017 0.473650 0.348061
vn 0.341010 0.736632 -0.584025
vn 0.951057 0.249013 0.182986
vn 0.400881 0.641945 -0.653606
vn 1.000000 0.000001 -0.000001
vn 0.421511 0.536983 -0.730738
vn 0.951056 -0.249012 -0.182988
vn 0.400881 0.432022 -0.807868
vn 0.809017 -0.473649 -0.348063
vn 0.341010 0.337335 -0.877450
vn 0.587785 -0.651923 -0.479068
vn 0.247758 0.262191 -0.932669
vn 0.309017 -0.766381 -0.563177
vn 0.130254 0.213945 -0.968123
vn -0.000000 -0.805821 -0.592160
vn -0.000000 0.197321 -0.980339
vn -0.309017 -0.766381 -0.563177
vn -0.130254 0.213945 -0.968123
vn -0.587785 -0.651923 -0.479067
vn -0.247758 0.262191 -0.932669
vn -0.809017 -0.473649 -0.348063
vn -0.341010 0.337335 -0.877449
vn -0.951056 -0.249012 -0.182988
vn -0.400881 0.432022 -0.807868
vn -1.000000 -0.000000 -0.000001
vn -0.421511 0.536983 -0.730738
vn -0.023872 0.598223 -0.800974
vn -0.020307 0.603861 -0.796831
vn -0.014754 0.608336 -0.793542
vn -0.007757 0.611209 -0.791431
vn -0.000000 0.612199 -0.790703
vn 0.007757 0.611209 -0.791431
vn 0.014754 0.608336 -0.793542
vn 0.020307 0.603861 -0.796831
vn 0.023873 0.598223 -0.800974
vn 0.025101 0.591972 -0.805567
vn 0.023873 0.585722 -0.810161
vn 0.020307 0.580083 -0.814304
vn 0.014754 0.575608 -0.817592
vn 0.007757 0.572735 -0.819704
vn 0.000000 0.571745 -0.820431
vn -0.007757 0.572735 -0.819704
vn -0.014754 0.575608 -0.817592
vn -0.020307 0.580083 -0.814304
vn -0.023873 0.585722 -0.810161
vn -0.025101 0.591972 -0.805567
vn 0.393589 0.436019 -0.809306
vn 0.334806 0.343054 -0.877621
vn 0.243251 0.269277 -0.931836
vn 0.127884 0.221909 -0.966645
vn -0.000000 0.205587 -0.978639
vn -0.127885 0.221909 -0.966645
vn -0.243251 0.269277 -0.931836
vn -0.334806 0.343054 -0.877621
vn -0.393588 0.436019 -0.809306
vn -0.413843 0.539071 -0.733578
vn -0.393588 0.642123 -0.657850
vn -0.334806 0.735088 -0.589535
vn -0.243251 0.808865 -0.535319
vn -0.127885 0.856233 -0.500511
vn 0.000000 0.872554 -0.488517
vn 0.127885 0.856233 -0.500511
vn 0.243251 0.808865 -0.535319
vn 0.334806 0.735088 -0.589535
vn 0.393588 0.642123 -0.657850
vn 0.413843 0.539071 -0.733578
vn 0.835827 0.063687 -0.545286
vn 0.710997 -0.133734 -0.690361
vn 0.516569 -0.290408 -0.805493
vn 0.271576 -0.390999 -0.879412
vn -0.000000 -0.425660 -0.904883
vn -0.271577 -0.390999 -0.879412
vn -0.516570 -0.290408 -0.805493
vn -0.710997 -0.133734 -0.690361
vn -0.835827 0.063686 -0.545287
vn -0.878840 0.282528 -0.384470
vn -0.835827 0.501371 -0.223654
vn -0.710997 0.698791 -0.078579
vn -0.516569 0.855465 0.036553
vn -0.271576 0.956055 0.110472
vn 0.000000 0.990717 0.135943
vn 0.271577 0.956056 0.110472
vn 0.516569 0.855465 0.036553
vn 0.710997 0.698791 -0.078579
vn 0.835827 0.501371 -0.223654
vn 0.878840 0.282529 -0.384470
vn 0.835827 -0.501370 0.223654
vn 0.710997 -0.698791 0.078579
vn 0.516569 -0.855465 -0.036553
vn 0.271577 -0.956055 -0.110472
vn -0.000000 -0.990717 -0.135943
vn -0.271577 -0.956055 -0.110472
vn -0.516570 -0.855465 -0.036553
vn -0.710997 -0.698791 0.078579
vn -0.835827 -0.501370 0.223653
vn -0.878840 -0.282528 0.384470
vn -0.835827 -0.063686 0.545287
vn -0.710997 0.133734 0.690361
vn -0.516569 0.290408 0.805493
vn -0.271577 0.390999 0.879412
vn 0.000000 0.425660 0.904883
vn 0.271577 0.390999 0.879412
vn 0.516570 0.290408 0.805493
vn 0.710997 0.133735 0.690361
vn 0.835827 -0.063686 0.545286
vn 0.878841 -0.282528 0.384470
vn 0.393589 -0.642123 0.657850
vn 0.334806 -0.735088 0.589535
vn 0.243251 -0.808865 0.535319
vn 0.127885 -0.856233 0.500511
vn -0.000000 -0.872554 0.488517
vn -0.127885 -0.856233 0.500511
vn -0.243251 -0.808865 0.535319
vn -0.334806 -0.735088 0.589535
vn -0.393588 -0.642123 0.657850
vn -0.413843 -0.539071 0.733578
vn -0.393588 -0.436019 0.809306
vn -0.334806 -0.343054 0.877621
vn -0.243251 -0.269277 0.931836
vn -0.127885 -0.221909 0.966645
vn 0.000000 -0.205587 0.978639
vn 0.127885 -0.221909 0.966645
vn 0.243251 -0.269276 0.931836
vn 0.334806 -0.343054 0.877621
vn 0.393589 -0.436018 0.809306
vn 0.413844 -0.539070 0.733578
vn -0.023872 -0.585722 0.810160
vn -0.020307 -0.580083 0.814304
vn -0.014754 -0.575608 0.817592
vn -0.007757 -0.572735 0.819704
vn -0.000000 -0.571745 0.820431
vn 0.007757 -0.572735 0.819704
vn 0.014754 -0.575608 0.817592
vn 0.020307 -0.580083 0.814304
vn 0.023872 -0.585722 0.810161
vn 0.025101 -0.591972 0.805567
vn 0.023872 -0.598223 0.800974
vn 0.020307 -0.603861 0.796831
vn 0.014754 -0.608336 0.793542
vn 0.007757 -0.611209 0.791431
vn -0.000000 -0.612199 0.790703
vn -0.007757 -0.611209 0.791431
vn -0.014754 -0.608336 0.793542
vn -0.020307 -0.603861 0.796831
vn -0.023872 -0.598223 0.800974
vn -0.025101 -0.591972 0.805567
vn -0.400881 -0.432022 0.807868
vn -0.341009 -0.337335 0.877449
vn -0.247758 -0.262191 0.932669
vn -0.130254 -0.213945 0.968123
vn 0.000000 -0.197321 0.980339
vn 0.130254 -0.213945 0.968123
vn 0.247758 -0.262191 0.932669
vn 0.341010 -0.337335 0.877450
vn 0.400881 -0.432022 0.807869
vn 0.421511 -0.536983 0.730737
vn 0.400881 -0.641945 0.653606
vn 0.341009 -0.736632 0.584025
vn 0.247758 -0.811776 0.528806
vn 0.130254 -0.860022 0.493352
vn -0.000000 -0.876646 0.481136
vn -0.130254 -0.860022 0.493352
vn -0.247758 -0.811776 0.528805
vn -0.341010 -0.736632 0.584025
vn -0.400881 -0.641945 0.653606
vn -0.421511 -0.536984 0.730737
s 1
g pTorus1
usemtl initialShadingGroup
f 2/2/1 1/1/2 21/22/3 22/23/4
f 3/3/5 2/2/1 22/23/4 23/24/6
f 4/4/7 3/3/5 23/24/6 24/25/8
f 5/5/9 4/4/7 24/25/8 25/26/10
f 6/6/11 5/5/9 25/26/10 26/27/12
f 7/7/13 6/6/11 26/27/12 27/28/14
f 8/8/15 7/7/13 27/28/14 28/29/16
f 9/9/17 8/8/15 28/29/16 29/30/18
f 10/10/19 9/9/17 29/30/18 30/31/20
f 11/11/21 10/10/19 30/31/20 31/32/22
f 12/12/23 11/11/21 31/32/22 32/33/24
f 13/13/25 12/12/23 32/33/24 33/34/26
f 14/14/27 13/13/25 33/34/26 34/35/28
f 15/15/29 14/14/27 34/35/28 35/36/30
f 16/16/31 15/15/29 35/36/30 36/37/32
f 17/17/33 16/16/31 36/37/32 37/38/34
f 18/18/35 17/17/33 37/38/34 38/39/36
f 19/19/37 18/18/35 38/39/36 39/40/38
f 20/20/39 19/19/37 39/40/38 40/41/40
f 1/21/2 20/20/39 40/41/40 21/42/3
f 22/23/4 21/22/3 41/43/41 42/44/42
f 23/24/6 22/23/4 42/44/42 43/45/43
f 24/25/8 23/24/6 43/45/43 44/46/44
f 25/26/10 24/25/8 44/46/44 45/47/45
f 26/27/12 25/26/10 45/47/45 46/48/46
f 27/28/14 26/27/12 46/48/46 47/49/47
f 28/29/16 27/28/14 47/49/47 48/50/48
f 29/30/18 28/29/16 48/50/48 49/51/49
f 30/31/20 29/30/18 49/51/49 50/52/50
f 31/32/22 30/31/20 50/52/50 51/53/51
f 32/33/24 31/32/22 51/53/51 52/54/52
f 33/34/26 32/33/24 52/54/52 53/55/53
f 34/35/28 33/34/26 53/55/53 54/56/54
f 35/36/30 34/35/28 54/56/54 55/57/55
f 36/37/32 35/36/30 55/57/55 56/58/56
f 37/38/34 36/37/32 56/58/56 57/59/57
f 38/39/36 37/38/34 57/59/57 58/60/58
f 39/40/38 38/39/36 58/60/58 59/61/59
f 40/41/40 39/40/38 59/61/59 60/62/60
f 21/42/3 40/41/40 60/62/60 41/63/41
f 42/44/42 41/43/41 61/64/61 62/65/62
f 43/45/43 42/44/42 62/65/62 63/66/63
f 44/46/44 43/45/43 63/66/63 64/67/64
f 45/47/45 44/46/44 64/67/64 65/68/65
f 46/48/46 45/47/45 65/68/65 66/69/66
f 47/49/47 46/48/46 66/69/66 67/70/67
f 48/50/48 47/49/47 67/70/67 68/71/68
f 49/51/49 48/50/48 68/71/68 69/72/69
f 50/52/50 49/51/49 69/72/69 70/73/70
f 51/53/51 50/52/50 70/73/70 71/74/71
f 52/54/52 51/53/51 71/74/71 72/75/72
f 53/55/53 52/54/52 72/75/72 73/76/73
f 54/56/54 53/55/53 73/76/73 74/77/74
f 55/57/55 54/56/54 74/77/74 75/78/75
f 56/58/56 55/57/55 75/78/75 76/79/76
f 57/59/57 56/58/56 76/79/76 77/80/77
f 58/60/58 57/59/57 77/80/77 78/81/78
f 59/61/59 58/60/58 78/81/78 79/82/79
f 60/62/60 59/61/59 79/82/79 80/83/80
f 41/63/41 60/62/60 80/83/80 61/84/61
f 62/65/62 61/64/61 81/85/81 82/86/82
f 63/66/63 62/65/62 82/86/82 83/87/83
f 64/67/64 63/66/63 83/87/83 84/88/84
f 65/68/65 64/67/64 84/88/84 85/89/85
f 66/69/66 65/68/65 85/89/85 86/90/86
f 67/70/67 66/69/66 86/90/86 87/91/87
f 68/71/68 67/70/67 87/91/87 88/92/88
f 69/72/69 68/71/68 88/92/88 89/93/89
f 70/73/70 69/72/69 89/93/89 90/94/90
f 71/74/71 70/73/70 90/94/90 91/95/91
f 72/75/72 71/74/71 91/95/91 92/96/92
f 73/76/73 72/75/72 92/96/92 93/97/93
f 74/77/74 73/76/73 93/97/93 94/98/94
f 75/78/75 74/77/74 94/98/94 95/99/95
f 76/79/76 75/78/75 95/99/95 96/100/96
f 77/80/77 76/79/76 96/100/96 97/101/97
f 78/81/78 77/80/77 97/101/97 98/102/98
f 79/82/79 78/81/78 98/102/98 99/103/99
f 80/83/80 79/82/79 99/103/99 100/104/100
f 61/84/61 80/83/80 100/104/100 81/105/81
f 82/86/82 81/85/81 101/106/101 102/107/102
f 83/87/83 82/86/82 102/107/102 103/108/103
f 84/88/84 83/87/83 103/108/103 104/109/104
f 85/89/85 84/88/84 104/109/104 105/110/105
f 86/90/86 85/89/85 105/110/105 106/111/106
f 87/91/87 86/90/86 106/111/106 107/112/107
f 88/92/88 87/91/87 107/112/107 108/113/108
f 89/93/89 88/92/88 108/113/108 109/114/109
f 90/94/90 89/93/89 109/114/109 110/115/110
f 91/95/91 90/94/90 110/115/110 111/116/111
f 92/96/92 91/95/91 111/116/111 112/117/112
f 93/97/93 92/96/92 112/117/112 113/118/113
f 94/98/94 93/97/93 113/118/113 114/119/114
f 95/99/95 94/98/94 114/119/114 115/120/115
f 96/100/96 95/99/95 115/120/115 116/121/116
f 97/101/97 96/100/96 116/121/116 117/122/117
f 98/102/98 97/101/97 117/122/117 118/123/118
f 99/103/99 98/102/98 118/123/118 119/124/119
f 100/104/100 99/103/99 119/124/119 120/125/120
f 81/105/81 100/104/100 120/125/120 101/126/101
f 102/107/102 101/106/101 121/127/121 122/128/122
f 103/108/103 102/107/102 122/128/122 123/129/123
f 104/109/104 103/108/103 123/129/123 124/130/124
f 105/110/105 104/109/104 124/130/124 125/131/125
f 106/111/106 105/110/105 125/131/125 126/132/126
f 107/112/107 106/111/106 126/132/126 127/133/127
f 108/113/108 107/112/107 127/133/127 128/134/128
f 109/114/109 108/113/108 128/134/128 129/135/129
f 110/115/110 109/114/109 129/135/129 130/136/130
f 111/116/111 110/115/110 130/136/130 131/137/131
f 112/117/112 111/116/111 131/137/131 132/138/132
f 113/118/113 112/117/112 132/138/132 133/139/133
f 114/119/114 113/118/113 133/139/133 134/140/134
f 115/120/115 114/119/114 134/140/134 135/141/135
f 116/121/116 115/120/115 135/141/135 136/142/136
f 117/122/117 116/121/116 136/142/136 137/143/137
f 118/123/118 117/122/117 137/143/137 138/144/138
f 119/124/119 118/123/118 138/144/138 139/145/139
f 120/125/120 119/124/119 139/145/139 140/146/140
f 101/126/101 120/125/120 140/146/140 121/147/121
f 122/128/122 121/127/121 141/148/141 142/149/142
f 123/129/123 122/128/122 142/149/142 143/150/143
f 124/130/124 123/129/123 143/150/143 144/151/144
f 125/131/125 124/130/124 144/151/144 145/152/145
f 126/132/126 125/131/125 145/152/145 146/153/146
f 127/133/127 126/132/126 146/153/146 147/154/147
f 128/134/128 127/133/127 147/154/147 148/155/148
f 129/135/129 128/134/128 148/155/148 149/156/149
f 130/136/130 129/135/129 149/156/149 150/157/150
f 131/137/131 130/136/130 150/157/150 151/158/151
f 132/138/132 131/137/131 151/158/151 152/159/152
f 133/139/133 132/138/132 152/159/152 153/160/153
f 134/140/134 133/139/133 153/160/153 154/161/154
f 135/141/135 134/140/134 154/161/154 155/162/155
f 136/142/136 135/141/135 155/162/155 156/163/156
f 137/143/137 136/142/136 156/163/156 157/164/157
f 138/144/138 137/143/137 157/164/157 158/165/158
f 139/145/139 138/144/138 158/165/158 159/166/159
f 140/146/140 139/145/139 159/166/159 160/167/160
f 121/147/121 140/146/140 160/167/160 141/168/141
f 142/149/142 141/148/141 161/169/161 162/170/162
f 143/150/143 142/149/142 162/170/162 163/171/163
f 144/151/144 143/150/143 163/171/163 164/172/164
f 145/152/145 144/151/144 164/172/164 165/173/165
f 146/153/146 145/152/145 165/173/165 166/174/166
f 147/154/147 146/153/146 166/174/166 167/175/167
f 148/155/148 147/154/147 167/175/167 168/176/168
f 149/156/149 148/155/148 168/176/168 169/177/169
f 150/157/150 149/156/149 169/177/169 170/178/170
f 151/158/151 150/157/150 170/178/170 171/179/171
f 152/159/152 151/158/151 171/179/171 172/180/172
f 153/160/153 152/159/152 172/180/172 173/181/173
f 154/161/154 153/160/153 173/181/173 174/182/174
f 155/162/155 154/161/154 174/182/174 175/183/175
f 156/163/156 155/162/155 175/183/175 176/184/176
f 157/164/157 156/163/156 176/184/176 177/185/177
f 158/165/158 157/164/157 177/185/177 178/186/178
f 159/166/159 158/165/158 178/186/178 179/187/179
f 160/167/160 159/166/159 179/187/179 180/188/180
f 141/168/141 160/167/160 180/188/180 161/189/161
f 162/170/162 161/169/161 1/190/2 2/191/1
f 163/171/163 162/170/162 2/191/1 3/192/5
f 164/172/164 163/171/163 3/192/5 4/193/7
f 165/173/165 164/172/164 4/193/7 5/194/9
f 166/174/166 165/173/165 5/194/9 6/195/11
f 167/175/167 166/174/166 6/195/11 7/196/13
f 168/176/168 167/175/167 7/196/13 8/197/15
f 169/177/169 168/176/168 8/197/15 9/198/17
f 170/178/170 169/177/169 9/198/17 10/199/19
f 171/179/171 170/178/170 10/199/19 11/200/21
f 172/180/172 171/179/171 11/200/21 12/201/23
f 173/181/173 172/180/172 12/201/23 13/202/25
f 174/182/174 173/181/173 13/202/25 14/203/27
f 175/183/175 174/182/174 14/203/27 15/204/29
f 176/184/176 175/183/175 15/204/29 16/205/31
f 177/185/177 176/184/176 16/205/31 17/206/33
f 178/186/178 177/185/177 17/206/33 18/207/35
f 179/187/179 178/186/178 18/207/35 19/208/37
f 180/188/180 179/187/179 19/208/37 20/209/39
f 161/189/161 180/188/180 20/209/39 1/210/2
