# This file uses centimeters as units for non-parametric coordinates.

mtllib PILAR1.mtl
g default
v -0.445682 -0.445682 0.445682
v 0.445682 -0.445682 0.445682
v -0.445682 0.445682 0.445682
v 0.445682 0.445682 0.445682
v -0.445682 0.445682 -0.445682
v 0.445682 0.445682 -0.445682
v -0.445682 -0.445682 -0.445682
v 0.445682 -0.445682 -0.445682
v -0.445682 1.400350 0.445682
v 0.445682 1.400350 0.445682
v 0.445682 1.400350 -0.445682
v -0.445682 1.400350 -0.445682
v -0.826837 2.068130 0.826837
v 0.826837 2.068130 0.826837
v 0.826837 2.068130 -0.826837
v -0.826837 2.068130 -0.826837
vt 0.375000 0.000000
vt 0.625000 0.000000
vt 0.375000 0.250000
vt 0.625000 0.250000
vt 0.375000 0.500000
vt 0.625000 0.500000
vt 0.375000 0.750000
vt 0.625000 0.750000
vt 0.375000 1.000000
vt 0.625000 1.000000
vt 0.875000 0.000000
vt 0.875000 0.250000
vt 0.125000 0.000000
vt 0.125000 0.250000
vt 0.375000 0.250000
vt 0.625000 0.250000
vt 0.625000 0.500000
vt 0.375000 0.500000
vt 0.375000 0.250000
vt 0.625000 0.250000
vt 0.625000 0.500000
vt 0.375000 0.500000
vn 0.000000 0.000000 1.000000
vn 0.000000 0.000000 1.000000
vn 0.000000 0.000000 1.000000
vn 0.000000 0.000000 1.000000
vn 0.000000 1.000000 0.000000
vn 0.000000 1.000000 0.000000
vn 0.000000 1.000000 0.000000
vn 0.000000 1.000000 0.000000
vn 0.000000 0.000000 -1.000000
vn 0.000000 0.000000 -1.000000
vn 0.000000 0.000000 -1.000000
vn 0.000000 0.000000 -1.000000
vn 0.000000 -1.000000 0.000000
vn 0.000000 -1.000000 0.000000
vn 0.000000 -1.000000 0.000000
vn 0.000000 -1.000000 0.000000
vn 1.000000 0.000000 0.000000
vn 1.000000 0.000000 0.000000
vn 1.000000 0.000000 0.000000
vn 1.000000 0.000000 0.000000
vn -1.000000 0.000000 0.000000
vn -1.000000 0.000000 0.000000
vn -1.000000 0.000000 0.000000
vn -1.000000 0.000000 0.000000
vn 0.000000 0.000000 1.000000
vn 0.000000 0.000000 1.000000
vn 1.000000 0.000000 0.000000
vn 1.000000 0.000000 0.000000
vn 0.000000 0.000000 -1.000000
vn 0.000000 0.000000 -1.000000
vn -1.000000 0.000000 0.000000
vn -1.000000 0.000000 0.000000
vn 0.000000 -0.495713 0.868486
vn 0.000000 -0.495713 0.868486
vn 0.000000 -0.495713 0.868486
vn 0.000000 -0.495713 0.868486
vn 0.868486 -0.495713 0.000000
vn 0.868486 -0.495713 0.000000
vn 0.868486 -0.495713 0.000000
vn 0.868486 -0.495713 0.000000
vn 0.000000 -0.495713 -0.868486
vn 0.000000 -0.495713 -0.868486
vn 0.000000 -0.495713 -0.868486
vn 0.000000 -0.495713 -0.868486
vn -0.868486 -0.495713 0.000000
vn -0.868486 -0.495713 0.000000
vn -0.868486 -0.495713 0.000000
vn -0.868486 -0.495713 0.000000
s 1
g pCube2
usemtl initialShadingGroup
f 1/1/1 2/2/2 4/4/3 3/3/4
s off
f 13/19/5 14/20/6 15/21/7 16/22/8
s 2
f 5/5/9 6/6/10 8/8/11 7/7/12
s off
f 7/7/13 8/8/14 2/10/15 1/9/16
s 3
f 2/2/17 8/11/18 6/12/19 4/4/20
s 4
f 7/13/21 1/1/22 3/3/23 5/14/24
s 1
f 3/3/4 4/4/3 10/16/25 9/15/26
s 3
f 4/4/20 6/6/19 11/17/27 10/16/28
s 2
f 6/6/10 5/5/9 12/18/29 11/17/30
s 4
f 5/5/24 3/3/23 9/15/31 12/18/32
s off
f 9/15/33 10/16/34 14/20/35 13/19/36
f 10/16/37 11/17/38 15/21/39 14/20/40
f 11/17/41 12/18/42 16/22/43 15/21/44
f 12/18/45 9/15/46 13/19/47 16/22/48
